<mxfile host="app.diagrams.net" agent="Mozilla/5.0 (Windows NT 10.0; Win64; x64) AppleWebKit/537.36 (KHTML, like Gecko) Chrome/131.0.0.0 Safari/537.36" version="25.0.3">
  <diagram id="C5RBs43oDa-KdzZeNtuy" name="Page-1">
    <mxGraphModel dx="1244" dy="567" grid="1" gridSize="10" guides="1" tooltips="1" connect="1" arrows="1" fold="1" page="1" pageScale="1" pageWidth="1654" pageHeight="1169" math="0" shadow="0">
      <root>
        <mxCell id="WIyWlLk6GJQsqaUBKTNV-0" />
        <mxCell id="WIyWlLk6GJQsqaUBKTNV-1" parent="WIyWlLk6GJQsqaUBKTNV-0" />
        <mxCell id="WIyWlLk6GJQsqaUBKTNV-2" value="" style="rounded=0;html=1;jettySize=auto;orthogonalLoop=1;fontSize=11;endArrow=block;endFill=0;endSize=8;strokeWidth=1;shadow=0;labelBackgroundColor=none;edgeStyle=orthogonalEdgeStyle;entryX=0.5;entryY=0;entryDx=0;entryDy=0;" parent="WIyWlLk6GJQsqaUBKTNV-1" target="WIyWlLk6GJQsqaUBKTNV-6" edge="1">
          <mxGeometry relative="1" as="geometry">
            <mxPoint x="220" y="120" as="sourcePoint" />
          </mxGeometry>
        </mxCell>
        <mxCell id="WIyWlLk6GJQsqaUBKTNV-4" value="Register" style="rounded=0;html=1;jettySize=auto;orthogonalLoop=1;fontSize=11;endArrow=block;endFill=0;endSize=8;strokeWidth=1;shadow=0;labelBackgroundColor=none;edgeStyle=orthogonalEdgeStyle;entryX=0.5;entryY=0;entryDx=0;entryDy=0;" parent="WIyWlLk6GJQsqaUBKTNV-1" source="WIyWlLk6GJQsqaUBKTNV-6" target="0qFND87kDYyeIlJF3pIq-2" edge="1">
          <mxGeometry x="-0.2" y="30" relative="1" as="geometry">
            <mxPoint as="offset" />
            <mxPoint x="220" y="300" as="targetPoint" />
          </mxGeometry>
        </mxCell>
        <mxCell id="WIyWlLk6GJQsqaUBKTNV-5" value="Login" style="edgeStyle=orthogonalEdgeStyle;rounded=0;html=1;jettySize=auto;orthogonalLoop=1;fontSize=11;endArrow=block;endFill=0;endSize=8;strokeWidth=1;shadow=0;labelBackgroundColor=none;entryX=0;entryY=0.5;entryDx=0;entryDy=0;" parent="WIyWlLk6GJQsqaUBKTNV-1" source="WIyWlLk6GJQsqaUBKTNV-6" target="0qFND87kDYyeIlJF3pIq-13" edge="1">
          <mxGeometry x="-0.2" y="10" relative="1" as="geometry">
            <mxPoint as="offset" />
            <mxPoint x="320" y="210" as="targetPoint" />
          </mxGeometry>
        </mxCell>
        <mxCell id="WIyWlLk6GJQsqaUBKTNV-6" value="Register/Login?" style="rhombus;whiteSpace=wrap;html=1;shadow=0;fontFamily=Helvetica;fontSize=12;align=center;strokeWidth=1;spacing=6;spacingTop=-4;" parent="WIyWlLk6GJQsqaUBKTNV-1" vertex="1">
          <mxGeometry x="160" y="170" width="120" height="80" as="geometry" />
        </mxCell>
        <mxCell id="0qFND87kDYyeIlJF3pIq-0" value="START" style="ellipse;whiteSpace=wrap;html=1;" vertex="1" parent="WIyWlLk6GJQsqaUBKTNV-1">
          <mxGeometry x="180" y="70" width="80" height="50" as="geometry" />
        </mxCell>
        <mxCell id="0qFND87kDYyeIlJF3pIq-10" style="edgeStyle=none;curved=1;rounded=0;orthogonalLoop=1;jettySize=auto;html=1;exitX=0.5;exitY=1;exitDx=0;exitDy=0;entryX=0.5;entryY=0;entryDx=0;entryDy=0;fontSize=12;startSize=8;endSize=8;" edge="1" parent="WIyWlLk6GJQsqaUBKTNV-1" source="0qFND87kDYyeIlJF3pIq-2" target="0qFND87kDYyeIlJF3pIq-3">
          <mxGeometry relative="1" as="geometry" />
        </mxCell>
        <mxCell id="0qFND87kDYyeIlJF3pIq-2" value="Input email and password" style="shape=parallelogram;perimeter=parallelogramPerimeter;whiteSpace=wrap;html=1;fixedSize=1;" vertex="1" parent="WIyWlLk6GJQsqaUBKTNV-1">
          <mxGeometry x="160" y="300" width="120" height="60" as="geometry" />
        </mxCell>
        <mxCell id="0qFND87kDYyeIlJF3pIq-5" style="edgeStyle=none;curved=1;rounded=0;orthogonalLoop=1;jettySize=auto;html=1;exitX=0.5;exitY=1;exitDx=0;exitDy=0;entryX=0.5;entryY=0;entryDx=0;entryDy=0;fontSize=12;startSize=8;endSize=8;entryPerimeter=0;" edge="1" parent="WIyWlLk6GJQsqaUBKTNV-1" source="0qFND87kDYyeIlJF3pIq-3" target="0qFND87kDYyeIlJF3pIq-29">
          <mxGeometry relative="1" as="geometry">
            <mxPoint x="220" y="540" as="targetPoint" />
          </mxGeometry>
        </mxCell>
        <mxCell id="0qFND87kDYyeIlJF3pIq-9" value="Yes" style="edgeLabel;html=1;align=center;verticalAlign=middle;resizable=0;points=[];fontSize=12;" vertex="1" connectable="0" parent="0qFND87kDYyeIlJF3pIq-5">
          <mxGeometry x="-0.1333" y="7" relative="1" as="geometry">
            <mxPoint x="13" y="-3" as="offset" />
          </mxGeometry>
        </mxCell>
        <mxCell id="0qFND87kDYyeIlJF3pIq-22" style="edgeStyle=none;curved=1;rounded=0;orthogonalLoop=1;jettySize=auto;html=1;exitX=1;exitY=0.5;exitDx=0;exitDy=0;fontSize=12;startSize=8;endSize=8;" edge="1" parent="WIyWlLk6GJQsqaUBKTNV-1" source="0qFND87kDYyeIlJF3pIq-3" target="0qFND87kDYyeIlJF3pIq-21">
          <mxGeometry relative="1" as="geometry" />
        </mxCell>
        <mxCell id="0qFND87kDYyeIlJF3pIq-24" value="No" style="edgeLabel;html=1;align=center;verticalAlign=middle;resizable=0;points=[];fontSize=12;" vertex="1" connectable="0" parent="0qFND87kDYyeIlJF3pIq-22">
          <mxGeometry x="-0.3667" y="1" relative="1" as="geometry">
            <mxPoint x="11" y="-14" as="offset" />
          </mxGeometry>
        </mxCell>
        <mxCell id="0qFND87kDYyeIlJF3pIq-3" value="Does the email contain &quot;@&quot;?" style="rhombus;whiteSpace=wrap;html=1;" vertex="1" parent="WIyWlLk6GJQsqaUBKTNV-1">
          <mxGeometry x="160" y="420" width="120" height="90" as="geometry" />
        </mxCell>
        <mxCell id="0qFND87kDYyeIlJF3pIq-18" style="edgeStyle=none;curved=1;rounded=0;orthogonalLoop=1;jettySize=auto;html=1;exitX=0.5;exitY=1;exitDx=0;exitDy=0;entryX=0.5;entryY=0;entryDx=0;entryDy=0;fontSize=12;startSize=8;endSize=8;" edge="1" parent="WIyWlLk6GJQsqaUBKTNV-1" source="0qFND87kDYyeIlJF3pIq-13" target="0qFND87kDYyeIlJF3pIq-14">
          <mxGeometry relative="1" as="geometry" />
        </mxCell>
        <mxCell id="0qFND87kDYyeIlJF3pIq-13" value="Input email and password" style="shape=parallelogram;perimeter=parallelogramPerimeter;whiteSpace=wrap;html=1;fixedSize=1;" vertex="1" parent="WIyWlLk6GJQsqaUBKTNV-1">
          <mxGeometry x="480" y="180" width="120" height="60" as="geometry" />
        </mxCell>
        <mxCell id="0qFND87kDYyeIlJF3pIq-26" style="edgeStyle=none;curved=1;rounded=0;orthogonalLoop=1;jettySize=auto;html=1;exitX=1;exitY=0.5;exitDx=0;exitDy=0;fontSize=12;startSize=8;endSize=8;entryX=0;entryY=0.5;entryDx=0;entryDy=0;" edge="1" parent="WIyWlLk6GJQsqaUBKTNV-1" source="0qFND87kDYyeIlJF3pIq-14" target="0qFND87kDYyeIlJF3pIq-25">
          <mxGeometry relative="1" as="geometry" />
        </mxCell>
        <mxCell id="0qFND87kDYyeIlJF3pIq-28" value="No" style="edgeLabel;html=1;align=center;verticalAlign=middle;resizable=0;points=[];fontSize=12;" vertex="1" connectable="0" parent="0qFND87kDYyeIlJF3pIq-26">
          <mxGeometry x="-0.24" y="1" relative="1" as="geometry">
            <mxPoint y="-14" as="offset" />
          </mxGeometry>
        </mxCell>
        <mxCell id="0qFND87kDYyeIlJF3pIq-43" style="edgeStyle=none;curved=1;rounded=0;orthogonalLoop=1;jettySize=auto;html=1;exitX=0.5;exitY=1;exitDx=0;exitDy=0;fontSize=12;startSize=8;endSize=8;" edge="1" parent="WIyWlLk6GJQsqaUBKTNV-1" source="0qFND87kDYyeIlJF3pIq-14" target="0qFND87kDYyeIlJF3pIq-32">
          <mxGeometry relative="1" as="geometry" />
        </mxCell>
        <mxCell id="0qFND87kDYyeIlJF3pIq-44" value="Yes" style="edgeLabel;html=1;align=center;verticalAlign=middle;resizable=0;points=[];fontSize=12;" vertex="1" connectable="0" parent="0qFND87kDYyeIlJF3pIq-43">
          <mxGeometry x="0.2118" y="-1" relative="1" as="geometry">
            <mxPoint x="21" y="-16" as="offset" />
          </mxGeometry>
        </mxCell>
        <mxCell id="0qFND87kDYyeIlJF3pIq-14" value="Is the login valid?" style="rhombus;whiteSpace=wrap;html=1;" vertex="1" parent="WIyWlLk6GJQsqaUBKTNV-1">
          <mxGeometry x="480" y="340" width="120" height="90" as="geometry" />
        </mxCell>
        <mxCell id="0qFND87kDYyeIlJF3pIq-23" style="edgeStyle=none;curved=1;rounded=0;orthogonalLoop=1;jettySize=auto;html=1;exitX=0.5;exitY=0;exitDx=0;exitDy=0;entryX=1;entryY=0.5;entryDx=0;entryDy=0;fontSize=12;startSize=8;endSize=8;" edge="1" parent="WIyWlLk6GJQsqaUBKTNV-1" source="0qFND87kDYyeIlJF3pIq-21" target="0qFND87kDYyeIlJF3pIq-2">
          <mxGeometry relative="1" as="geometry">
            <Array as="points">
              <mxPoint x="395" y="380" />
              <mxPoint x="390" y="330" />
              <mxPoint x="330" y="330" />
            </Array>
          </mxGeometry>
        </mxCell>
        <mxCell id="0qFND87kDYyeIlJF3pIq-21" value="Output: Invalid email. Please enter a valid email address." style="shape=parallelogram;perimeter=parallelogramPerimeter;whiteSpace=wrap;html=1;fixedSize=1;" vertex="1" parent="WIyWlLk6GJQsqaUBKTNV-1">
          <mxGeometry x="330" y="435" width="130" height="60" as="geometry" />
        </mxCell>
        <mxCell id="0qFND87kDYyeIlJF3pIq-27" style="edgeStyle=none;curved=1;rounded=0;orthogonalLoop=1;jettySize=auto;html=1;exitX=0.5;exitY=0;exitDx=0;exitDy=0;entryX=1;entryY=0.5;entryDx=0;entryDy=0;fontSize=12;startSize=8;endSize=8;" edge="1" parent="WIyWlLk6GJQsqaUBKTNV-1" source="0qFND87kDYyeIlJF3pIq-25" target="0qFND87kDYyeIlJF3pIq-13">
          <mxGeometry relative="1" as="geometry">
            <Array as="points">
              <mxPoint x="710" y="280" />
              <mxPoint x="710" y="210" />
              <mxPoint x="660" y="210" />
            </Array>
          </mxGeometry>
        </mxCell>
        <mxCell id="0qFND87kDYyeIlJF3pIq-25" value="Output: Invalid email or password." style="shape=parallelogram;perimeter=parallelogramPerimeter;whiteSpace=wrap;html=1;fixedSize=1;" vertex="1" parent="WIyWlLk6GJQsqaUBKTNV-1">
          <mxGeometry x="640" y="355" width="140" height="60" as="geometry" />
        </mxCell>
        <mxCell id="0qFND87kDYyeIlJF3pIq-31" style="edgeStyle=none;curved=1;rounded=0;orthogonalLoop=1;jettySize=auto;html=1;exitX=0.5;exitY=1;exitDx=0;exitDy=0;exitPerimeter=0;entryX=0.5;entryY=0;entryDx=0;entryDy=0;fontSize=12;startSize=8;endSize=8;" edge="1" parent="WIyWlLk6GJQsqaUBKTNV-1" source="0qFND87kDYyeIlJF3pIq-29" target="0qFND87kDYyeIlJF3pIq-30">
          <mxGeometry relative="1" as="geometry" />
        </mxCell>
        <mxCell id="0qFND87kDYyeIlJF3pIq-29" value="User Database" style="shape=cylinder3;whiteSpace=wrap;html=1;boundedLbl=1;backgroundOutline=1;size=15;" vertex="1" parent="WIyWlLk6GJQsqaUBKTNV-1">
          <mxGeometry x="190" y="540" width="60" height="80" as="geometry" />
        </mxCell>
        <mxCell id="0qFND87kDYyeIlJF3pIq-33" style="edgeStyle=none;curved=1;rounded=0;orthogonalLoop=1;jettySize=auto;html=1;exitX=0.5;exitY=1;exitDx=0;exitDy=0;entryX=0;entryY=0.5;entryDx=0;entryDy=0;fontSize=12;startSize=8;endSize=8;" edge="1" parent="WIyWlLk6GJQsqaUBKTNV-1" source="0qFND87kDYyeIlJF3pIq-30" target="0qFND87kDYyeIlJF3pIq-32">
          <mxGeometry relative="1" as="geometry">
            <Array as="points">
              <mxPoint x="220" y="770" />
              <mxPoint x="220" y="785" />
              <mxPoint x="240" y="790" />
            </Array>
          </mxGeometry>
        </mxCell>
        <mxCell id="0qFND87kDYyeIlJF3pIq-30" value="Output: User registered successfully!" style="shape=parallelogram;perimeter=parallelogramPerimeter;whiteSpace=wrap;html=1;fixedSize=1;" vertex="1" parent="WIyWlLk6GJQsqaUBKTNV-1">
          <mxGeometry x="160" y="660" width="120" height="60" as="geometry" />
        </mxCell>
        <mxCell id="0qFND87kDYyeIlJF3pIq-37" style="edgeStyle=none;curved=1;rounded=0;orthogonalLoop=1;jettySize=auto;html=1;exitX=0.5;exitY=1;exitDx=0;exitDy=0;entryX=0.5;entryY=0;entryDx=0;entryDy=0;fontSize=12;startSize=8;endSize=8;" edge="1" parent="WIyWlLk6GJQsqaUBKTNV-1" source="0qFND87kDYyeIlJF3pIq-32" target="0qFND87kDYyeIlJF3pIq-36">
          <mxGeometry relative="1" as="geometry" />
        </mxCell>
        <mxCell id="0qFND87kDYyeIlJF3pIq-32" value="Output: Main Menu&lt;div&gt;1. Fetch Stock Data&lt;/div&gt;&lt;div&gt;2. View Saved Data&lt;/div&gt;&lt;div&gt;3. Exit&lt;/div&gt;" style="shape=parallelogram;perimeter=parallelogramPerimeter;whiteSpace=wrap;html=1;fixedSize=1;" vertex="1" parent="WIyWlLk6GJQsqaUBKTNV-1">
          <mxGeometry x="450" y="730" width="180" height="110" as="geometry" />
        </mxCell>
        <mxCell id="0qFND87kDYyeIlJF3pIq-40" style="edgeStyle=none;curved=1;rounded=0;orthogonalLoop=1;jettySize=auto;html=1;exitX=1;exitY=0.5;exitDx=0;exitDy=0;entryX=0;entryY=0.5;entryDx=0;entryDy=0;fontSize=12;startSize=8;endSize=8;" edge="1" parent="WIyWlLk6GJQsqaUBKTNV-1" source="0qFND87kDYyeIlJF3pIq-36" target="0qFND87kDYyeIlJF3pIq-38">
          <mxGeometry relative="1" as="geometry" />
        </mxCell>
        <mxCell id="0qFND87kDYyeIlJF3pIq-67" value="1" style="edgeLabel;html=1;align=center;verticalAlign=middle;resizable=0;points=[];fontSize=12;" vertex="1" connectable="0" parent="0qFND87kDYyeIlJF3pIq-40">
          <mxGeometry x="0.1361" y="-1" relative="1" as="geometry">
            <mxPoint x="-1" y="-11" as="offset" />
          </mxGeometry>
        </mxCell>
        <mxCell id="0qFND87kDYyeIlJF3pIq-46" style="edgeStyle=none;curved=1;rounded=0;orthogonalLoop=1;jettySize=auto;html=1;exitX=0.5;exitY=1;exitDx=0;exitDy=0;entryX=0.5;entryY=0;entryDx=0;entryDy=0;fontSize=12;startSize=8;endSize=8;" edge="1" parent="WIyWlLk6GJQsqaUBKTNV-1" source="0qFND87kDYyeIlJF3pIq-36" target="0qFND87kDYyeIlJF3pIq-45">
          <mxGeometry relative="1" as="geometry" />
        </mxCell>
        <mxCell id="0qFND87kDYyeIlJF3pIq-69" value="3" style="edgeLabel;html=1;align=center;verticalAlign=middle;resizable=0;points=[];fontSize=12;" vertex="1" connectable="0" parent="0qFND87kDYyeIlJF3pIq-46">
          <mxGeometry x="-0.2815" y="-1" relative="1" as="geometry">
            <mxPoint x="11" as="offset" />
          </mxGeometry>
        </mxCell>
        <mxCell id="0qFND87kDYyeIlJF3pIq-36" value="User&#39;s choice" style="rhombus;whiteSpace=wrap;html=1;" vertex="1" parent="WIyWlLk6GJQsqaUBKTNV-1">
          <mxGeometry x="485" y="890" width="110" height="80" as="geometry" />
        </mxCell>
        <mxCell id="0qFND87kDYyeIlJF3pIq-51" style="edgeStyle=none;curved=1;rounded=0;orthogonalLoop=1;jettySize=auto;html=1;exitX=1;exitY=0.5;exitDx=0;exitDy=0;entryX=0;entryY=0.5;entryDx=0;entryDy=0;fontSize=12;startSize=8;endSize=8;" edge="1" parent="WIyWlLk6GJQsqaUBKTNV-1" source="0qFND87kDYyeIlJF3pIq-38" target="0qFND87kDYyeIlJF3pIq-50">
          <mxGeometry relative="1" as="geometry" />
        </mxCell>
        <mxCell id="0qFND87kDYyeIlJF3pIq-38" value="Input:&lt;div&gt;1. Fetch Stock Data&lt;/div&gt;" style="shape=parallelogram;perimeter=parallelogramPerimeter;whiteSpace=wrap;html=1;fixedSize=1;" vertex="1" parent="WIyWlLk6GJQsqaUBKTNV-1">
          <mxGeometry x="665" y="900" width="130" height="60" as="geometry" />
        </mxCell>
        <mxCell id="0qFND87kDYyeIlJF3pIq-39" value="Input:&amp;nbsp;&lt;div&gt;2. View Saved Data&lt;/div&gt;" style="shape=parallelogram;perimeter=parallelogramPerimeter;whiteSpace=wrap;html=1;fixedSize=1;" vertex="1" parent="WIyWlLk6GJQsqaUBKTNV-1">
          <mxGeometry x="665" y="1010" width="130" height="60" as="geometry" />
        </mxCell>
        <mxCell id="0qFND87kDYyeIlJF3pIq-41" value="" style="endArrow=classic;html=1;rounded=0;fontSize=12;startSize=8;endSize=8;curved=1;entryX=0;entryY=0.5;entryDx=0;entryDy=0;" edge="1" parent="WIyWlLk6GJQsqaUBKTNV-1" target="0qFND87kDYyeIlJF3pIq-39">
          <mxGeometry width="50" height="50" relative="1" as="geometry">
            <mxPoint x="625" y="930" as="sourcePoint" />
            <mxPoint x="675" y="1040" as="targetPoint" />
            <Array as="points">
              <mxPoint x="625" y="1030" />
              <mxPoint x="625" y="1040" />
              <mxPoint x="640" y="1040" />
            </Array>
          </mxGeometry>
        </mxCell>
        <mxCell id="0qFND87kDYyeIlJF3pIq-68" value="2" style="edgeLabel;html=1;align=center;verticalAlign=middle;resizable=0;points=[];fontSize=12;" vertex="1" connectable="0" parent="0qFND87kDYyeIlJF3pIq-41">
          <mxGeometry x="0.5542" y="1" relative="1" as="geometry">
            <mxPoint x="11" y="-9" as="offset" />
          </mxGeometry>
        </mxCell>
        <mxCell id="0qFND87kDYyeIlJF3pIq-49" style="edgeStyle=none;curved=1;rounded=0;orthogonalLoop=1;jettySize=auto;html=1;exitX=0.5;exitY=1;exitDx=0;exitDy=0;entryX=0.5;entryY=0;entryDx=0;entryDy=0;fontSize=12;startSize=8;endSize=8;" edge="1" parent="WIyWlLk6GJQsqaUBKTNV-1" source="0qFND87kDYyeIlJF3pIq-45" target="0qFND87kDYyeIlJF3pIq-48">
          <mxGeometry relative="1" as="geometry" />
        </mxCell>
        <mxCell id="0qFND87kDYyeIlJF3pIq-45" value="Input:&lt;div&gt;3. Exit&lt;/div&gt;" style="shape=parallelogram;perimeter=parallelogramPerimeter;whiteSpace=wrap;html=1;fixedSize=1;" vertex="1" parent="WIyWlLk6GJQsqaUBKTNV-1">
          <mxGeometry x="480" y="1000" width="120" height="60" as="geometry" />
        </mxCell>
        <mxCell id="0qFND87kDYyeIlJF3pIq-48" value="END" style="ellipse;whiteSpace=wrap;html=1;" vertex="1" parent="WIyWlLk6GJQsqaUBKTNV-1">
          <mxGeometry x="500" y="1100" width="80" height="50" as="geometry" />
        </mxCell>
        <mxCell id="0qFND87kDYyeIlJF3pIq-53" style="edgeStyle=none;curved=1;rounded=0;orthogonalLoop=1;jettySize=auto;html=1;exitX=1;exitY=0.5;exitDx=0;exitDy=0;entryX=0;entryY=0.5;entryDx=0;entryDy=0;fontSize=12;startSize=8;endSize=8;" edge="1" parent="WIyWlLk6GJQsqaUBKTNV-1" source="0qFND87kDYyeIlJF3pIq-50" target="0qFND87kDYyeIlJF3pIq-52">
          <mxGeometry relative="1" as="geometry" />
        </mxCell>
        <mxCell id="0qFND87kDYyeIlJF3pIq-50" value="Input: Ticker, Start Date, End Date" style="shape=parallelogram;perimeter=parallelogramPerimeter;whiteSpace=wrap;html=1;fixedSize=1;" vertex="1" parent="WIyWlLk6GJQsqaUBKTNV-1">
          <mxGeometry x="827" y="900" width="120" height="60" as="geometry" />
        </mxCell>
        <mxCell id="0qFND87kDYyeIlJF3pIq-55" style="edgeStyle=none;curved=1;rounded=0;orthogonalLoop=1;jettySize=auto;html=1;exitX=1;exitY=0.5;exitDx=0;exitDy=0;entryX=0;entryY=0.5;entryDx=0;entryDy=0;fontSize=12;startSize=8;endSize=8;" edge="1" parent="WIyWlLk6GJQsqaUBKTNV-1" source="0qFND87kDYyeIlJF3pIq-52" target="0qFND87kDYyeIlJF3pIq-54">
          <mxGeometry relative="1" as="geometry" />
        </mxCell>
        <mxCell id="0qFND87kDYyeIlJF3pIq-52" value="Analyze data" style="rounded=1;whiteSpace=wrap;html=1;" vertex="1" parent="WIyWlLk6GJQsqaUBKTNV-1">
          <mxGeometry x="980" y="900" width="120" height="60" as="geometry" />
        </mxCell>
        <mxCell id="0qFND87kDYyeIlJF3pIq-54" value="Output: Average Closing Price, Percentage Change, Highest &amp;amp; Lowest Price" style="shape=parallelogram;perimeter=parallelogramPerimeter;whiteSpace=wrap;html=1;fixedSize=1;" vertex="1" parent="WIyWlLk6GJQsqaUBKTNV-1">
          <mxGeometry x="1130" y="890" width="150" height="80" as="geometry" />
        </mxCell>
        <mxCell id="0qFND87kDYyeIlJF3pIq-59" style="edgeStyle=none;curved=1;rounded=0;orthogonalLoop=1;jettySize=auto;html=1;exitX=1;exitY=0.5;exitDx=0;exitDy=0;exitPerimeter=0;entryX=0;entryY=0.5;entryDx=0;entryDy=0;fontSize=12;startSize=8;endSize=8;" edge="1" parent="WIyWlLk6GJQsqaUBKTNV-1" source="0qFND87kDYyeIlJF3pIq-56" target="0qFND87kDYyeIlJF3pIq-58">
          <mxGeometry relative="1" as="geometry" />
        </mxCell>
        <mxCell id="0qFND87kDYyeIlJF3pIq-56" value="Closing Price Database" style="shape=cylinder3;whiteSpace=wrap;html=1;boundedLbl=1;backgroundOutline=1;size=15;" vertex="1" parent="WIyWlLk6GJQsqaUBKTNV-1">
          <mxGeometry x="1310" y="890" width="60" height="80" as="geometry" />
        </mxCell>
        <mxCell id="0qFND87kDYyeIlJF3pIq-57" style="edgeStyle=none;curved=1;rounded=0;orthogonalLoop=1;jettySize=auto;html=1;exitX=1;exitY=0.5;exitDx=0;exitDy=0;entryX=0;entryY=0.5;entryDx=0;entryDy=0;entryPerimeter=0;fontSize=12;startSize=8;endSize=8;" edge="1" parent="WIyWlLk6GJQsqaUBKTNV-1" source="0qFND87kDYyeIlJF3pIq-54" target="0qFND87kDYyeIlJF3pIq-56">
          <mxGeometry relative="1" as="geometry" />
        </mxCell>
        <mxCell id="0qFND87kDYyeIlJF3pIq-60" style="edgeStyle=none;curved=1;rounded=0;orthogonalLoop=1;jettySize=auto;html=1;exitX=1;exitY=0.5;exitDx=0;exitDy=0;entryX=1;entryY=0.5;entryDx=0;entryDy=0;fontSize=12;startSize=8;endSize=8;" edge="1" parent="WIyWlLk6GJQsqaUBKTNV-1" source="0qFND87kDYyeIlJF3pIq-58" target="0qFND87kDYyeIlJF3pIq-32">
          <mxGeometry relative="1" as="geometry">
            <Array as="points">
              <mxPoint x="1550" y="930" />
              <mxPoint x="1560" y="930" />
              <mxPoint x="1560" y="910" />
              <mxPoint x="1560" y="800" />
              <mxPoint x="1560" y="785" />
              <mxPoint x="1540" y="785" />
            </Array>
          </mxGeometry>
        </mxCell>
        <mxCell id="0qFND87kDYyeIlJF3pIq-58" value="Data saved successfully!" style="shape=parallelogram;perimeter=parallelogramPerimeter;whiteSpace=wrap;html=1;fixedSize=1;" vertex="1" parent="WIyWlLk6GJQsqaUBKTNV-1">
          <mxGeometry x="1400" y="900" width="120" height="60" as="geometry" />
        </mxCell>
        <mxCell id="0qFND87kDYyeIlJF3pIq-64" style="edgeStyle=none;curved=1;rounded=0;orthogonalLoop=1;jettySize=auto;html=1;exitX=1;exitY=0.5;exitDx=0;exitDy=0;exitPerimeter=0;entryX=0;entryY=0.5;entryDx=0;entryDy=0;fontSize=12;startSize=8;endSize=8;" edge="1" parent="WIyWlLk6GJQsqaUBKTNV-1" source="0qFND87kDYyeIlJF3pIq-61" target="0qFND87kDYyeIlJF3pIq-62">
          <mxGeometry relative="1" as="geometry" />
        </mxCell>
        <mxCell id="0qFND87kDYyeIlJF3pIq-61" value="Closing Price Database" style="shape=cylinder3;whiteSpace=wrap;html=1;boundedLbl=1;backgroundOutline=1;size=15;" vertex="1" parent="WIyWlLk6GJQsqaUBKTNV-1">
          <mxGeometry x="980" y="1000" width="60" height="80" as="geometry" />
        </mxCell>
        <mxCell id="0qFND87kDYyeIlJF3pIq-62" value="Output:&amp;nbsp;&lt;div&gt;Saved Data&lt;/div&gt;" style="shape=parallelogram;perimeter=parallelogramPerimeter;whiteSpace=wrap;html=1;fixedSize=1;" vertex="1" parent="WIyWlLk6GJQsqaUBKTNV-1">
          <mxGeometry x="1270" y="1010" width="120" height="60" as="geometry" />
        </mxCell>
        <mxCell id="0qFND87kDYyeIlJF3pIq-63" style="edgeStyle=none;curved=1;rounded=0;orthogonalLoop=1;jettySize=auto;html=1;exitX=1;exitY=0.5;exitDx=0;exitDy=0;entryX=0;entryY=0.5;entryDx=0;entryDy=0;entryPerimeter=0;fontSize=12;startSize=8;endSize=8;" edge="1" parent="WIyWlLk6GJQsqaUBKTNV-1" source="0qFND87kDYyeIlJF3pIq-39" target="0qFND87kDYyeIlJF3pIq-61">
          <mxGeometry relative="1" as="geometry" />
        </mxCell>
        <mxCell id="0qFND87kDYyeIlJF3pIq-66" value="" style="endArrow=none;html=1;rounded=0;fontSize=12;startSize=8;endSize=8;curved=1;exitX=1;exitY=0.5;exitDx=0;exitDy=0;" edge="1" parent="WIyWlLk6GJQsqaUBKTNV-1" source="0qFND87kDYyeIlJF3pIq-62">
          <mxGeometry width="50" height="50" relative="1" as="geometry">
            <mxPoint x="1020" y="950" as="sourcePoint" />
            <mxPoint x="1560" y="920" as="targetPoint" />
            <Array as="points">
              <mxPoint x="1550" y="1040" />
              <mxPoint x="1560" y="1040" />
              <mxPoint x="1560" y="1020" />
            </Array>
          </mxGeometry>
        </mxCell>
      </root>
    </mxGraphModel>
  </diagram>
</mxfile>
